<?xml version="1.0" standalone="no"?>
<!DOCTYPE svg PUBLIC "-//W3C//DTD SVG 20010904//EN"
 "http://www.w3.org/TR/2001/REC-SVG-20010904/DTD/svg10.dtd">
<svg version="1.0" xmlns="http://www.w3.org/2000/svg"
 width="260.000000pt" height="260.000000pt" viewBox="0 0 260.000000 260.000000"
 preserveAspectRatio="xMidYMid meet">

<g transform="translate(0.000000,260.000000) scale(0.100000,-0.100000)"
fill="#000000" stroke="none">
<path d="M177 2472 c-70 -71 -127 -132 -127 -136 0 -19 29 -53 135 -157 64
-63 125 -115 136 -117 26 -4 59 25 59 51 0 10 -29 49 -65 86 -36 37 -65 69
-65 72 0 2 119 4 264 5 286 0 296 2 296 53 0 50 -5 51 -292 51 -147 0 -268 3
-268 7 0 3 29 37 65 74 36 37 65 73 65 81 0 25 -31 58 -54 58 -15 0 -61 -40
-149 -128z"/>
<path d="M2236 2578 c-9 -12 -16 -29 -16 -36 0 -8 29 -44 65 -81 36 -37 65
-71 65 -74 0 -4 -121 -7 -268 -7 -287 0 -292 -1 -292 -51 0 -50 10 -51 295
-53 146 0 265 -3 265 -5 0 -3 -29 -35 -65 -72 -36 -37 -65 -76 -65 -86 0 -25
30 -53 56 -53 11 0 69 50 137 118 117 116 137 138 137 156 0 5 -57 67 -127
138 -134 135 -158 148 -187 106z"/>
<path d="M1360 2247 c-25 -13 -57 -42 -75 -69 -27 -38 -35 -44 -50 -35 -71 39
-171 25 -238 -34 -77 -67 -77 -65 -77 -601 0 -257 -3 -468 -6 -468 -3 0 -50
32 -103 71 -124 93 -168 112 -251 112 -137 0 -240 -86 -240 -199 0 -41 6 -59
29 -90 16 -21 213 -221 437 -444 440 -436 444 -440 585 -476 50 -13 103 -15
273 -12 197 4 216 6 278 30 100 38 173 85 241 158 75 79 121 162 147 266 18
70 20 111 20 428 0 318 -2 355 -19 391 -25 55 -75 101 -129 120 -57 19 -93 19
-139 0 -48 -20 -47 -20 -76 24 -51 77 -152 114 -239 87 l-48 -14 0 295 c0 321
-4 349 -53 409 -61 74 -181 97 -267 51z m162 -99 c47 -23 48 -38 48 -546 0
-367 3 -482 13 -494 21 -28 54 -31 76 -9 18 18 21 34 21 120 0 117 8 144 52
171 44 28 92 20 132 -19 29 -29 30 -33 34 -146 4 -109 6 -117 28 -132 22 -14
26 -14 47 0 19 12 25 28 30 76 4 34 14 72 22 85 35 53 121 58 166 10 l24 -26
3 -341 c3 -391 -3 -439 -66 -546 -67 -114 -192 -205 -317 -231 -34 -7 -131
-10 -253 -8 -191 3 -199 4 -257 31 -52 24 -114 81 -478 445 -380 380 -417 420
-415 447 3 34 50 71 103 81 60 11 107 -12 265 -131 90 -67 163 -115 176 -115
55 0 54 -14 54 566 0 589 -1 577 61 610 60 31 139 -9 153 -77 3 -18 6 -218 6
-445 l0 -414 25 -16 c23 -15 27 -15 50 0 l25 16 0 478 c0 434 2 480 18 512 29
59 94 79 154 48z"/>
</g>
</svg>
